<svg width="580" height="400" xmlns="http://www.w3.org/2000/svg"><path fill="#fff" d="M-1-1h582v402H-1z"/><g stroke="null"><ellipse transform="translate(-7336.19 -5135.904) scale(.42814)" fill="#f2f2f2" ry="34.922" rx="527.5" cy="12710.457" cx="17795.95"/><path fill="#2f2e41" d="M265.708 148.169c-35.336 0-60.708 22.67-60.708 75.57 0 59.952 25.372 75.822 60.708 75.822s62.22-17.381 62.22-75.822c0-62.472-26.883-75.57-62.22-75.57zm.233 131.492c-24.475 0-37.262-14.359-37.262-55.883 0-36.64 13.31-55.961 37.785-55.961s37.785 12.691 37.785 55.96c0 40.478-13.833 55.884-38.308 55.884z"/><path fill="#3051d3" d="M183.84 257.745h-14.61v-43.023a8.616 8.616 0 00-8.616-8.616h-3.423a8.616 8.616 0 00-8.617 8.616v43.023h-41.21a4.919 4.919 0 01-4.35-7.216l43.618-82.553a8.616 8.616 0 00-3.94-11.816l-2.574-1.216a8.616 8.616 0 00-11.278 3.73l-53.197 99.513a11.683 11.683 0 00-1.38 5.508h0a11.683 11.683 0 0011.684 11.684h62.627v27.205a10.328 10.328 0 0010.328 10.328h0a10.328 10.328 0 0010.328-10.328v-27.205h14.61a8.817 8.817 0 008.817-8.817h0a8.817 8.817 0 00-8.816-8.817z"/><path stroke="#3f3d56" stroke-miterlimit="10" fill="none" d="M187.871 252.707h-14.61v-43.023a8.616 8.616 0 00-8.616-8.616h-3.424a8.616 8.616 0 00-8.616 8.616v43.023h-41.21a4.919 4.919 0 01-4.35-7.216l43.617-82.553a8.616 8.616 0 00-3.94-11.816l-2.574-1.216a8.616 8.616 0 00-11.278 3.73l-53.196 99.513a11.683 11.683 0 00-1.38 5.508h0a11.683 11.683 0 0011.684 11.684h62.627v27.205a10.328 10.328 0 0010.328 10.328h0a10.328 10.328 0 0010.328-10.328V270.34h14.61a8.817 8.817 0 008.816-8.817h0a8.817 8.817 0 00-8.816-8.817zm85.899-109.073c-35.338 0-60.709 22.671-60.709 75.57 0 59.953 25.371 75.823 60.708 75.823s62.22-17.381 62.22-75.822c0-62.472-26.883-75.57-62.22-75.57zm.232 131.493c-24.476 0-37.262-14.36-37.262-55.884 0-36.639 13.31-55.96 37.785-55.96s37.785 12.691 37.785 55.96c0 40.478-13.833 55.884-38.309 55.884h0z"/><circle transform="translate(-7041.686 -4920.197) scale(.41116)" fill="#2f2e41" r="12.901" cy="12178.241" cx="17723.36"/><ellipse transform="translate(-7041.686 -4920.197) scale(.41116)" fill="#2f2e41" ry="46.885" rx="36.186" cy="12206.875" cx="17754.826"/><path opacity=".1" d="M258.382 112.233c-7.453 0-13.626-7.1-14.71-16.366a25.07 25.07 0 00-.168 2.911c0 10.646 6.661 19.277 14.878 19.277s14.879-8.63 14.879-19.277a25.07 25.07 0 00-.17-2.91c-1.082 9.264-7.255 16.365-14.709 16.365z"/><path fill="#3f3d56" d="M288.658 155.232c-.32 1.313-1.697 2.364-3.223 3.1-3.208 1.544-7.165 2.005-11.003 2.16a18.575 18.575 0 01-2.937-.055 8.444 8.444 0 01-5.037-2.315.691.691 0 01.018-1.17c2.043-2.244 5.453-3.62 8.888-4.611 2.604-.751 7.146-2.698 9.987-2.435 2.751.254 3.71 3.668 3.307 5.326z"/><path opacity=".1" d="M288.658 155.232c-.32 1.313-1.697 2.364-3.223 3.1-3.208 1.544-7.165 2.005-11.003 2.16a18.575 18.575 0 01-2.937-.055 8.444 8.444 0 01-5.037-2.315.691.691 0 01.018-1.17c2.043-2.244 5.453-3.62 8.888-4.611 2.604-.751 7.146-2.698 9.987-2.435 2.751.254 3.71 3.668 3.307 5.326z"/><path fill="#3f3d56" d="M247.872 145.419a8.128 8.128 0 00-.493 6.198 10.83 10.83 0 003.63 5.138c4.15 3.327 9.863 3.785 15.182 3.739a117.036 117.036 0 0013.94-.956 16.668 16.668 0 004.524-1.05c1.736-.751 3.261-2.129 3.88-3.917s.179-3.977-1.29-5.17c-1.289-1.048-3.067-1.192-4.727-1.292l-9.492-.57c.938-.95 2.186-1.486 3.328-2.176 1.516-.916 2.522-2.453 3.624-3.839a53.04 53.04 0 015.525-5.68c.31 1.772 1.43 3.227 2.75 4.45s2.84 2.207 4.212 3.371c3.321 2.82 5.713 6.648 9.207 9.252a18.02 18.02 0 006.598-3.295l-1.358-2.459a1.62 1.62 0 00-.511-.638c-.385-.237-.88-.115-1.326-.182-1.193-.179-1.714-1.556-2.182-2.667-1.285-3.052-3.745-5.42-5.846-7.978a40.297 40.297 0 01-4.11-6.054c-.705-1.275-1.351-2.603-2.31-3.701s-2.299-1.963-3.757-1.966c-1.287-.003-2.475.651-3.582 1.309a94.763 94.763 0 00-9.716 6.619c-1.622 1.259-3.233 2.589-5.135 3.36-.801.326-1.645.548-2.414.943-1.345.693-2.367 1.865-3.466 2.905-3.922 3.71-9.29 6.113-14.685 6.306z"/><path fill="#fbbebe" d="M267.72 119.013a9.775 9.775 0 01-.712 3.303 4.13 4.13 0 01-2.372 2.29 5.088 5.088 0 01-2.312.076 4.474 4.474 0 01-1.883-.642c-.89-.612-1.334-1.704-1.496-2.772-.162-1.068-.09-2.158-.193-3.234a17.657 17.657 0 00-.494-2.572l-.21-.84c-.07-.279-.137-.558-.199-.838-.057-.262-.11-.526-.155-.791a11.807 11.807 0 01-.096-.676 7.575 7.575 0 00-.332-1.978 6.006 6.006 0 00-.694-1.173 8.688 8.688 0 01-.336-.511 2.422 2.422 0 01-.4-1.541 1.351 1.351 0 01.06-.247 1.11 1.11 0 01.036-.092.74.74 0 00.506-.472 1.412 1.412 0 00-.061-.731 4.654 4.654 0 00-.395-.941c-.108-.197-.477-.551-.48-.776-.005-.453.88-.818 1.238-.996a6.906 6.906 0 013.535-.717c.783.053 1.631.293 2.064.95.388.59.336 1.357.502 2.044a.605.605 0 00.122.273.552.552 0 00.304.14 1.87 1.87 0 00.583.023h.001a1.205 1.205 0 00.153-.022 2.038 2.038 0 00.835-.361q.241-.064.486-.105a.103.103 0 00.019-.004c.648 2.045.732 4.238 1.263 6.321.262 1.037.639 2.06.692 3.126.004.047.005.094.006.142.008.343-.02.689-.005 1.03a2.87 2.87 0 00.052.458 6.419 6.419 0 00.216.717l.004.012a3.533 3.533 0 01.105.393v.004a6.142 6.142 0 01.044 1.73z"/><circle transform="translate(-7041.686 -4920.197) scale(.41116)" fill="#fbbebe" r="18.565" cy="12204.987" cx="17755.456"/><path fill="#fbbebe" d="M307.103 139.591a12.518 12.518 0 00-2.153-5.798l.595 3.53a1.321 1.321 0 01-1.384-.425 4.25 4.25 0 01-.726-1.347 27.74 27.74 0 00-3.375-6.059c-4.86-.405-9.664-2.42-13.937-4.767-4.274-2.347-8.275-5.161-12.492-7.608a17.916 17.916 0 00-2.28-1.164c-1.32-.53-2.801-.804-4.052-1.426a6.631 6.631 0 01-.251-.13 5.172 5.172 0 01-.8-.538 4.253 4.253 0 01-.383-.351 8.368 8.368 0 01-1.463-2.448c-.671-1.486-.91-3.277-1.58-4.763a4.606 4.606 0 011.028-.725h.001a3.58 3.58 0 01.164-.082 4.91 4.91 0 01.824-.301q.241-.064.486-.105a.103.103 0 00.019-.004 4.755 4.755 0 012.258.178c1.063.36 1.96 1.078 2.854 1.757a46.88 46.88 0 014.172 3.31c.737.706 1.41 1.483 2.203 2.124a17.328 17.328 0 002.08 1.378q6.437 3.835 12.875 7.668c1.453.866 2.907 1.731 4.328 2.647 2.158 1.392 4.238 2.9 6.317 4.408q1.838 1.331 3.674 2.664a4 4 0 011.042.963 3.484 3.484 0 01.462 1.411 12.905 12.905 0 01-.506 6.003z"/><path fill="#3051d3" d="M269.613 124.753c-.515 2.31-2.848 3.705-4.069 5.734-1.516 2.518-.897 5.444-.328 8.328l-3.122 2.69c-.574.493-1.149.988-1.767 1.424a23.58 23.58 0 01-2.82 1.62l-2.764 1.422a13.21 13.21 0 01-2.705 1.146c-1.816.466-3.743.14-5.54-.4a2.503 2.503 0 01-.605-.247.984.984 0 01-.287-.26 1.608 1.608 0 01-.182-1.044c.182-3.022.921-5.981 1.657-8.918a35.055 35.055 0 011.582-5.171 34.98 34.98 0 012.227-4.174 28.11 28.11 0 013.26-4.734 7.598 7.598 0 001.511-1.948c.46-1.048.282-2.25.376-3.391a7.05 7.05 0 01.671-2.47v-.001a7.028 7.028 0 01.717-1.185l.376.876q.125.287.246.573.16.369.316.735l.903 2.102a8.877 8.877 0 001.371 2.444 2.672 2.672 0 004.574-.35 8.742 8.742 0 00.934-2.473 7.9 7.9 0 00.103-3.222c-.312-2.06-1.187-4.163-1.824-6.076a6.145 6.145 0 01-.444-2.003 1.378 1.378 0 01.024-.23l.011-.06a4.91 4.91 0 01.824-.301q.241-.064.486-.105.84 4.549 1.683 9.098l.04.214c.08.435.162.87.252 1.303.082.394.17.786.268 1.175l.004.012c.033.132.068.262.105.393v.004c.1.357.212.711.337 1.06.761 2.106 2.087 4.225 1.6 6.41z"/><path fill="#3f3d56" d="M300.592 157.207a2.707 2.707 0 00.25 1.292c.478.874 1.625 1.072 2.617 1.154a77.453 77.453 0 0017.378-.53 2.009 2.009 0 00.884-.274c.818-.574.314-1.972-.58-2.42s-1.953-.34-2.933-.533a9.243 9.243 0 01-2.746-1.19q-2.982-1.714-5.877-3.573c-1.149-.738-2.505-1.525-3.799-1.088-3.505 1.186-5.217 3.38-5.194 7.162z"/><path fill="#fbbebe" d="M257.879 113.623v.001a3.187 3.187 0 01-.03.16 9.461 9.461 0 01-.048.266 31.95 31.95 0 01-.583 2.451c-.621 2.245-1.453 4.453-2.279 6.63l-6.646 17.506c-.559 1.47-1.116 2.94-1.751 4.38-.213.48-.431.964-.649 1.453-.778 1.75-1.526 3.558-1.775 5.421a11.286 11.286 0 00-.079 3.717c.249 1.221.99 2.414 2.15 2.866.567.22 1.379.517 1.223 1.106-.084.323-.451.481-.781.535a3.007 3.007 0 01-2.453-.706c-.62-.55-1.096-1.405-1.92-1.497-.57-.062-1.096.28-1.619.519-2.132.974-4.616.292-6.855-.4.176-.907 1.087-1.504 1.99-1.686.905-.182 1.84-.053 2.763-.077a1.443 1.443 0 00.84-.216 1.524 1.524 0 00.453-.774 32.467 32.467 0 001.32-5.405c.298-1.919.422-3.867.847-5.763.33-1.478.84-2.91 1.277-4.362a92.38 92.38 0 002.08-9.077 32.079 32.079 0 00.586-3.852c.074-1.074.039-2.153.142-3.223a25.035 25.035 0 01.868-4.11l1.187-4.395c.586-2.167 1.215-4.418 2.7-6.103a5.74 5.74 0 014.123-1.969 4.063 4.063 0 01.876.095l.144.036a3.55 3.55 0 01.894.37c.458-.291.69-.189.995.26a2.867 2.867 0 01.362 1.56 21.555 21.555 0 01-.352 4.283z"/><path fill="#3051d3" d="M258.382 115.338l-.02.02-.104.104-1.04 1.04-.51-2.142-1.748-7.34a4.063 4.063 0 01.876.094 1.351 1.351 0 01.06-.247l.084.283.592 2.016 1.122 3.827.185.63v.001l.503 1.714z"/><path fill="#2f2e41" d="M264.983 91.92a5.173 5.173 0 01-1.522 3.657 5.063 5.063 0 01-.559.483 5.151 5.151 0 01-3.098 1.038h-6.207a5.177 5.177 0 010-10.353h6.207a5.193 5.193 0 015.179 5.174z"/><circle transform="translate(-7041.686 -4920.197) scale(.41116)" fill="#2f2e41" r="12.901" cy="12178.241" cx="17785.034"/><path opacity=".1" d="M270.673 81.7c-.065 0-.13.003-.194.005a5.303 5.303 0 010 10.6c.064.002.129.004.194.004a5.304 5.304 0 100-10.609zm-25.228 0c.065 0 .13.003.194.005a5.303 5.303 0 000 10.6c-.065.002-.13.004-.194.004a5.304 5.304 0 010-10.609zm17.457 14.36a5.151 5.151 0 01-3.098 1.038h-6.207a5.151 5.151 0 01-3.098-1.038h12.403z"/><path fill="#fbbebe" d="M302.984 134.496s1.337 3.853 2.561 2.827l-.975-5.036-1.586 2.209z"/><path fill="#57b894" d="M485.712 252.003a8.557 8.557 0 101.14-16.412l.214 4.405-2.084-3.775a8.525 8.525 0 00-4.393 4.82 8.391 8.391 0 00-.492 2.315 8.556 8.556 0 005.615 8.647z"/><path stroke="#3f3d56" stroke-miterlimit="10" fill="none" d="M496.023 303.087c-.736-3.746 2.452-7.067 5.6-9.225s6.828-4.28 7.902-7.943c1.544-5.264-3.055-10.085-6.635-14.243a51.518 51.518 0 01-6.793-10.097c-.745-1.452-1.43-2.97-1.625-4.591-.283-2.334.467-4.656 1.222-6.881q3.775-11.123 8.07-22.06"/><path stroke="#3f3d56" stroke-miterlimit="10" fill="none" d="M486.065 250.869a8.557 8.557 0 101.14-16.412l.213 4.405-2.084-3.775a8.525 8.525 0 00-4.392 4.82 8.391 8.391 0 00-.492 2.315 8.556 8.556 0 005.615 8.647z"/><path fill="#57b894" d="M494.977 226.527a8.547 8.547 0 016.16-5.427l.704 4.188 1.306-4.398a8.556 8.556 0 11-8.17 5.637h0z"/><path stroke="#3f3d56" stroke-miterlimit="10" fill="none" d="M495.447 225.015a8.547 8.547 0 016.159-5.427l.705 4.188 1.306-4.398a8.556 8.556 0 11-8.17 5.637h0z"/><path fill="#57b894" d="M501.388 271.761a8.556 8.556 0 007.574-15.222l-1.004 3.38-.712-4.237a.149.149 0 00-.022-.009 8.557 8.557 0 10-5.836 16.088h0z"/><path stroke="#3f3d56" stroke-miterlimit="10" fill="none" d="M501.796 270.23a8.556 8.556 0 007.573-15.223l-1.004 3.38-.712-4.237a.149.149 0 00-.022-.008 8.557 8.557 0 10-5.836 16.088h0z"/><path fill="#57b894" d="M492.48 285.972a8.553 8.553 0 101.649-6.701l3.812 5.738-5.209-3.045a8.477 8.477 0 00-.252 4.008z"/><path stroke="#3f3d56" stroke-miterlimit="10" fill="none" d="M492.832 284.838a8.553 8.553 0 101.65-6.701l3.812 5.738-5.21-3.045a8.477 8.477 0 00-.252 4.008z"/><path fill="#57b894" d="M55.434 272.848a5.622 5.622 0 10.749-10.782l.14 2.893-1.369-2.48a5.601 5.601 0 00-2.886 3.167 5.513 5.513 0 00-.323 1.521 5.621 5.621 0 003.689 5.681z"/><path stroke="#3f3d56" stroke-miterlimit="10" fill="none" d="M62.208 306.411c-.483-2.46 1.611-4.643 3.68-6.06s4.485-2.812 5.191-5.219c1.015-3.459-2.007-6.626-4.359-9.358a33.848 33.848 0 01-4.463-6.634 9.132 9.132 0 01-1.068-3.016c-.185-1.534.307-3.06.803-4.522q2.48-7.307 5.303-14.493"/><path stroke="#3f3d56" stroke-miterlimit="10" fill="none" d="M55.665 272.103a5.622 5.622 0 10.75-10.782l.14 2.893-1.37-2.48a5.601 5.601 0 00-2.885 3.167 5.513 5.513 0 00-.324 1.52 5.621 5.621 0 003.69 5.682z"/><path fill="#57b894" d="M61.521 256.11a5.616 5.616 0 014.047-3.565l.463 2.75.858-2.888a5.622 5.622 0 11-5.368 3.703z"/><path stroke="#3f3d56" stroke-miterlimit="10" fill="none" d="M61.83 255.117a5.616 5.616 0 014.046-3.566l.463 2.751.859-2.889a5.622 5.622 0 11-5.368 3.704z"/><path fill="#57b894" d="M65.733 285.83a5.622 5.622 0 004.976-10.002l-.66 2.22-.467-2.783a.098.098 0 00-.014-.005 5.622 5.622 0 10-3.835 10.57z"/><path stroke="#3f3d56" stroke-miterlimit="10" fill="none" d="M66 284.824a5.622 5.622 0 004.977-10.002l-.66 2.22-.467-2.783a.098.098 0 00-.015-.005 5.622 5.622 0 10-3.834 10.57z"/><path fill="#57b894" d="M59.88 295.166a5.62 5.62 0 101.084-4.402l2.505 3.77-3.423-2.001a5.57 5.57 0 00-.166 2.633z"/><path stroke="#3f3d56" stroke-miterlimit="10" fill="none" d="M60.112 294.421a5.62 5.62 0 101.083-4.402l2.505 3.77-3.422-2.001a5.57 5.57 0 00-.166 2.633z"/><ellipse transform="translate(-7041.686 -4920.197) scale(.41116)" fill="#2f2e41" ry="22" rx="17" cy="12479.106" cx="17733.165"/><ellipse transform="translate(-7041.686 -4920.197) scale(.41116)" fill="#2f2e41" ry="22" rx="17" cy="12479.606" cx="17825.665"/><path fill="#2f2e41" d="M282.163 237.64c0 4.086-5.707 7.4-12.746 7.4s-12.746-3.314-12.746-7.4c0-3.54 4.28-6.501 10-7.225a20.6 20.6 0 012.746-.177 20.845 20.845 0 014.576.494c4.778 1.065 8.17 3.758 8.17 6.907z"/><ellipse stroke="#3f3d56" transform="translate(-7041.686 -4920.197) scale(.41116)" stroke-miterlimit="10" fill="none" ry="22" rx="17" cy="12474.106" cx="17737.165"/><ellipse stroke="#3f3d56" transform="translate(-7041.686 -4920.197) scale(.41116)" stroke-miterlimit="10" fill="none" ry="22" rx="17" cy="12474.606" cx="17829.665"/><ellipse stroke="#3f3d56" transform="translate(-7041.686 -4920.197) scale(.41116)" stroke-miterlimit="10" fill="none" ry="18" rx="31" cy="12539.606" cx="17785.665"/><path fill="#fff" d="M274.145 231.349a2.03 2.03 0 01-.542 1.394 1.784 1.784 0 01-1.308.58h-4.111a1.918 1.918 0 01-1.85-1.974 2.017 2.017 0 01.337-1.128 19.333 19.333 0 012.746-.188 19.598 19.598 0 014.576.526 2.083 2.083 0 01.152.79z"/><circle transform="translate(-7041.686 -4920.197) scale(.41116)" fill="#fff" r="5" cy="12468.106" cx="17737.165"/><circle transform="translate(-7041.686 -4920.197) scale(.41116)" fill="#fff" r="5" cy="12468.106" cx="17830.165"/><circle transform="translate(-7041.686 -4920.197) scale(.41116)" opacity=".3" fill="#3051d3" r="5" cy="12515.106" cx="17835.165"/><circle transform="translate(-7041.686 -4920.197) scale(.41116)" opacity=".3" fill="#3051d3" r="5" cy="12515.106" cx="17713.165"/><path fill="#2f2e41" d="M406.708 148.169c-35.336 0-60.708 22.67-60.708 75.57 0 59.952 25.372 75.822 60.708 75.822s62.22-17.381 62.22-75.822c0-62.472-26.883-75.57-62.22-75.57zm.233 131.492c-24.475 0-37.262-14.359-37.262-55.883 0-36.64 13.31-55.961 37.785-55.961s37.785 12.691 37.785 55.96c0 40.478-13.833 55.884-38.308 55.884z"/><path stroke="#3f3d56" stroke-miterlimit="10" fill="none" d="M414.77 143.634c-35.338 0-60.709 22.671-60.709 75.57 0 59.953 25.371 75.823 60.708 75.823s62.22-17.381 62.22-75.822c0-62.472-26.883-75.57-62.22-75.57zm.232 131.493c-24.476 0-37.262-14.36-37.262-55.884 0-36.639 13.31-55.96 37.785-55.96s37.785 12.691 37.785 55.96c0 40.478-13.833 55.884-38.309 55.884h0z"/><circle transform="translate(-7041.686 -4920.197) scale(.41116)" fill="#2f2e41" r="12.901" cy="12178.241" cx="18066.292"/><ellipse transform="translate(-7041.686 -4920.197) scale(.41116)" fill="#2f2e41" ry="46.885" rx="36.186" cy="12206.875" cx="18097.759"/><path opacity=".1" d="M399.382 112.233c-7.453 0-13.626-7.1-14.71-16.366a25.07 25.07 0 00-.168 2.911c0 10.646 6.661 19.277 14.878 19.277s14.879-8.63 14.879-19.277a25.07 25.07 0 00-.17-2.911c-1.082 9.265-7.255 16.366-14.709 16.366z"/><path fill="#3f3d56" d="M429.658 155.232c-.32 1.313-1.697 2.364-3.223 3.1-3.208 1.544-7.165 2.005-11.003 2.16a18.575 18.575 0 01-2.937-.055 8.444 8.444 0 01-5.037-2.315.691.691 0 01.018-1.17c2.043-2.244 5.453-3.62 8.888-4.611 2.604-.751 7.146-2.698 9.987-2.435 2.751.254 3.71 3.668 3.307 5.326z"/><path opacity=".1" d="M429.658 155.232c-.32 1.313-1.697 2.364-3.223 3.1-3.208 1.544-7.165 2.005-11.003 2.16a18.575 18.575 0 01-2.937-.055 8.444 8.444 0 01-5.037-2.315.691.691 0 01.018-1.17c2.043-2.244 5.453-3.62 8.888-4.611 2.604-.751 7.146-2.698 9.987-2.435 2.751.254 3.71 3.668 3.307 5.326z"/><path fill="#3f3d56" d="M388.872 145.419a8.128 8.128 0 00-.493 6.198 10.83 10.83 0 003.63 5.138c4.15 3.327 9.863 3.785 15.182 3.739a117.036 117.036 0 0013.94-.956 16.668 16.668 0 004.524-1.05c1.736-.751 3.261-2.129 3.88-3.917s.179-3.977-1.29-5.17c-1.289-1.048-3.067-1.192-4.727-1.292l-9.492-.57c.938-.95 2.186-1.486 3.328-2.176 1.516-.916 2.522-2.453 3.624-3.839a53.04 53.04 0 015.525-5.68c.31 1.772 1.43 3.227 2.75 4.45s2.84 2.207 4.212 3.371c3.321 2.82 5.713 6.648 9.207 9.252a18.02 18.02 0 006.598-3.295l-1.358-2.459a1.62 1.62 0 00-.511-.638c-.385-.237-.88-.115-1.326-.182-1.193-.179-1.714-1.556-2.182-2.667-1.285-3.052-3.745-5.42-5.846-7.978a40.297 40.297 0 01-4.11-6.054c-.705-1.275-1.351-2.603-2.31-3.701s-2.299-1.963-3.757-1.966c-1.287-.003-2.475.651-3.582 1.309a94.763 94.763 0 00-9.716 6.619c-1.622 1.259-3.233 2.589-5.135 3.36-.801.326-1.645.548-2.414.943-1.345.693-2.367 1.865-3.466 2.905-3.922 3.71-9.29 6.113-14.685 6.306z"/><path fill="#fbbebe" d="M408.72 119.013a9.775 9.775 0 01-.712 3.303 4.13 4.13 0 01-2.372 2.29 5.088 5.088 0 01-2.312.076 4.474 4.474 0 01-1.883-.642c-.89-.612-1.334-1.704-1.496-2.772-.162-1.068-.09-2.158-.193-3.234a17.657 17.657 0 00-.494-2.572l-.21-.84c-.07-.279-.137-.558-.199-.838-.057-.262-.11-.526-.155-.791a11.809 11.809 0 01-.096-.676 7.575 7.575 0 00-.332-1.978 6.006 6.006 0 00-.694-1.173 8.688 8.688 0 01-.336-.511 2.422 2.422 0 01-.4-1.541 1.351 1.351 0 01.06-.247c.011-.031.023-.062.036-.092a.74.74 0 00.506-.472 1.412 1.412 0 00-.061-.731 4.654 4.654 0 00-.395-.941c-.108-.197-.477-.551-.48-.776-.005-.453.88-.818 1.238-.996a6.906 6.906 0 013.535-.717c.783.053 1.631.293 2.064.95.388.59.336 1.357.502 2.044a.605.605 0 00.122.273.552.552 0 00.304.14 1.87 1.87 0 00.583.023h.001a1.205 1.205 0 00.153-.022 2.038 2.038 0 00.835-.361q.241-.064.486-.105a.103.103 0 00.019-.004c.648 2.045.732 4.238 1.263 6.321.262 1.037.639 2.06.692 3.126.004.047.005.094.006.142.008.343-.02.689-.005 1.03a2.87 2.87 0 00.052.458 6.419 6.419 0 00.216.717l.004.012a3.533 3.533 0 01.105.393v.004a6.142 6.142 0 01.044 1.73z"/><circle transform="translate(-7041.686 -4920.197) scale(.41116)" fill="#fbbebe" r="18.565" cy="12204.987" cx="18098.388"/><path fill="#fbbebe" d="M448.103 139.591a12.518 12.518 0 00-2.153-5.798l.595 3.53a1.321 1.321 0 01-1.384-.425 4.25 4.25 0 01-.726-1.347 27.74 27.74 0 00-3.375-6.059c-4.86-.405-9.664-2.42-13.937-4.767-4.274-2.347-8.275-5.161-12.492-7.608a17.916 17.916 0 00-2.28-1.164c-1.32-.53-2.801-.804-4.052-1.426a6.642 6.642 0 01-.251-.13 5.172 5.172 0 01-.8-.538 4.253 4.253 0 01-.383-.351 8.368 8.368 0 01-1.463-2.448c-.671-1.486-.91-3.277-1.58-4.763a4.606 4.606 0 011.028-.725h.001a3.58 3.58 0 01.164-.082 4.91 4.91 0 01.824-.301q.241-.064.486-.105a.103.103 0 00.019-.004 4.755 4.755 0 012.258.178c1.063.36 1.96 1.078 2.854 1.757a46.88 46.88 0 014.172 3.31c.737.706 1.41 1.483 2.203 2.124a17.328 17.328 0 002.08 1.378q6.437 3.835 12.875 7.668c1.453.866 2.907 1.731 4.328 2.647 2.158 1.392 4.238 2.9 6.317 4.408q1.838 1.331 3.674 2.664a4 4 0 011.042.963 3.484 3.484 0 01.462 1.411 12.905 12.905 0 01-.506 6.003z"/><path fill="#3051d3" d="M410.613 124.753c-.515 2.31-2.848 3.705-4.069 5.734-1.516 2.518-.897 5.444-.328 8.328l-3.122 2.69c-.574.493-1.149.988-1.767 1.424a23.58 23.58 0 01-2.82 1.62l-2.764 1.422a13.21 13.21 0 01-2.705 1.146c-1.816.466-3.743.14-5.54-.4a2.503 2.503 0 01-.605-.247.984.984 0 01-.287-.26 1.608 1.608 0 01-.182-1.044c.182-3.022.921-5.981 1.657-8.918a35.055 35.055 0 011.582-5.171 34.98 34.98 0 012.227-4.174 28.11 28.11 0 013.26-4.734 7.598 7.598 0 001.511-1.948c.46-1.048.282-2.25.376-3.391a7.05 7.05 0 01.671-2.47v-.001a7.028 7.028 0 01.717-1.185l.376.876.246.573q.16.369.316.735l.903 2.102a8.877 8.877 0 001.371 2.444 2.672 2.672 0 004.574-.35 8.742 8.742 0 00.934-2.473 7.9 7.9 0 00.103-3.222c-.311-2.06-1.187-4.163-1.824-6.076a6.145 6.145 0 01-.444-2.003 1.378 1.378 0 01.024-.23l.011-.06a4.91 4.91 0 01.824-.301q.241-.064.486-.105.84 4.549 1.683 9.098l.04.214c.08.435.162.87.252 1.303.082.394.17.786.268 1.175l.004.012c.033.132.068.262.105.393v.004c.1.357.212.711.337 1.06.761 2.106 2.087 4.225 1.6 6.41z"/><path fill="#3f3d56" d="M441.592 157.207a2.707 2.707 0 00.25 1.292c.478.874 1.625 1.072 2.617 1.154a77.453 77.453 0 0017.378-.53 2.009 2.009 0 00.884-.274c.818-.574.314-1.972-.58-2.42s-1.953-.34-2.933-.533a9.243 9.243 0 01-2.746-1.19q-2.982-1.714-5.877-3.573c-1.149-.738-2.505-1.525-3.799-1.088-3.505 1.186-5.217 3.38-5.194 7.162z"/><path fill="#fbbebe" d="M398.879 113.623v.001a3.19 3.19 0 01-.03.16 9.472 9.472 0 01-.048.266c-.16.821-.357 1.639-.583 2.451-.621 2.245-1.453 4.453-2.279 6.63l-6.646 17.506c-.559 1.47-1.116 2.94-1.751 4.38-.213.48-.431.964-.649 1.453-.778 1.75-1.526 3.558-1.775 5.421a11.286 11.286 0 00-.078 3.717c.248 1.221.99 2.414 2.15 2.866.566.22 1.378.517 1.222 1.106-.084.323-.451.481-.781.535a3.007 3.007 0 01-2.453-.706c-.62-.55-1.096-1.405-1.92-1.497-.57-.062-1.096.28-1.619.519-2.132.974-4.616.292-6.855-.4.176-.907 1.087-1.504 1.99-1.686.905-.182 1.84-.053 2.763-.077a1.443 1.443 0 00.84-.216 1.524 1.524 0 00.453-.774 32.467 32.467 0 001.32-5.405c.298-1.919.422-3.867.847-5.763.33-1.478.84-2.91 1.277-4.362a92.38 92.38 0 002.08-9.077 32.079 32.079 0 00.586-3.852c.074-1.074.039-2.153.142-3.223a25.035 25.035 0 01.868-4.11l1.187-4.395c.586-2.167 1.215-4.418 2.7-6.103a5.74 5.74 0 014.123-1.969 4.063 4.063 0 01.876.095l.144.036a3.55 3.55 0 01.894.37c.458-.291.69-.189.995.26a2.867 2.867 0 01.362 1.56 21.555 21.555 0 01-.352 4.283z"/><path fill="#3051d3" d="M399.382 115.338l-.02.02-.104.104-1.04 1.04-.51-2.142-1.748-7.34a4.063 4.063 0 01.876.094 1.351 1.351 0 01.06-.247l.084.283.592 2.016 1.122 3.827.185.63v.001l.503 1.714z"/><path fill="#2f2e41" d="M405.983 91.92a5.173 5.173 0 01-1.522 3.657 5.063 5.063 0 01-.559.483 5.151 5.151 0 01-3.098 1.038h-6.207a5.177 5.177 0 010-10.353h6.207a5.193 5.193 0 015.179 5.174z"/><circle transform="translate(-7041.686 -4920.197) scale(.41116)" fill="#2f2e41" r="12.901" cy="12178.241" cx="18127.966"/><path opacity=".1" d="M411.673 81.7c-.065 0-.13.003-.194.005a5.303 5.303 0 010 10.6c.064.002.129.004.194.004a5.304 5.304 0 100-10.609zm-25.228 0c.065 0 .13.003.194.005a5.303 5.303 0 000 10.6c-.065.002-.13.004-.194.004a5.304 5.304 0 010-10.609zm17.457 14.36a5.151 5.151 0 01-3.098 1.038h-6.207a5.151 5.151 0 01-3.098-1.038h12.403z"/><path fill="#fbbebe" d="M443.984 134.496s1.337 3.853 2.561 2.827l-.975-5.036-1.586 2.209z"/><ellipse transform="translate(-7041.686 -4920.197) scale(.41116)" fill="#2f2e41" ry="22" rx="17" cy="12479.106" cx="18076.097"/><ellipse transform="translate(-7041.686 -4920.197) scale(.41116)" fill="#2f2e41" ry="22" rx="17" cy="12479.606" cx="18168.597"/><path fill="#2f2e41" d="M423.163 237.64c0 4.086-5.707 7.4-12.746 7.4s-12.746-3.314-12.746-7.4c0-3.54 4.28-6.501 10-7.225a20.6 20.6 0 012.746-.177 20.845 20.845 0 014.576.494c4.778 1.065 8.17 3.758 8.17 6.907z"/><ellipse stroke="#3f3d56" transform="translate(-7041.686 -4920.197) scale(.41116)" stroke-miterlimit="10" fill="none" ry="22" rx="17" cy="12474.106" cx="18080.097"/><ellipse stroke="#3f3d56" transform="translate(-7041.686 -4920.197) scale(.41116)" stroke-miterlimit="10" fill="none" ry="22" rx="17" cy="12474.606" cx="18172.597"/><ellipse stroke="#3f3d56" transform="translate(-7041.686 -4920.197) scale(.41116)" stroke-miterlimit="10" fill="none" ry="18" rx="31" cy="12539.606" cx="18128.597"/><path fill="#fff" d="M415.146 231.349a2.03 2.03 0 01-.543 1.394 1.784 1.784 0 01-1.308.58h-4.111a1.918 1.918 0 01-1.85-1.974 2.017 2.017 0 01.337-1.128 19.333 19.333 0 012.746-.188 19.598 19.598 0 014.576.526 2.083 2.083 0 01.153.79z"/><circle transform="translate(-7041.686 -4920.197) scale(.41116)" fill="#fff" r="5" cy="12468.106" cx="18080.097"/><circle transform="translate(-7041.686 -4920.197) scale(.41116)" fill="#fff" r="5" cy="12468.106" cx="18173.097"/><circle transform="translate(-7041.686 -4920.197) scale(.41116)" opacity=".3" fill="#3051d3" r="5" cy="12515.106" cx="18178.097"/><circle transform="translate(-7041.686 -4920.197) scale(.41116)" opacity=".3" fill="#3051d3" r="5" cy="12515.106" cx="18056.097"/></g></svg>