<svg width="1100" height="500" xmlns="http://www.w3.org/2000/svg"><g stroke="null"><ellipse cx="17944.017" cy="12562.095" rx="527.5" ry="34.922" fill="#f2f2f2" transform="matrix(.96432 0 0 1.03284 -16753.107 -12533.711)"/><path d="M511.68 60.15c-79.59 0-136.735 54.691-136.735 182.303 0 144.627 57.145 182.911 136.735 182.911s140.139-41.93 140.139-182.91c0-150.704-60.55-182.303-140.14-182.303zm.523 317.208c-55.126 0-83.926-34.64-83.926-134.811 0-88.387 29.979-134.998 85.105-134.998s85.105 30.617 85.105 134.998c0 97.646-31.158 134.81-86.284 134.81z" fill="#2f2e41"/><path d="M327.286 324.49H294.38V220.702a19.407 20.785 0 00-19.407-20.786h-7.71a19.407 20.785 0 00-19.407 20.786V324.49h-92.82a11.079 11.866 0 01-9.795-17.41l98.24-199.147a19.407 20.785 0 00-8.873-28.505l-5.8-2.933a19.407 20.785 0 00-25.4 8.996L83.59 325.555a26.315 28.185 0 00-3.108 13.287h0a26.315 28.185 0 0026.315 28.185h141.058v65.63a23.262 24.915 0 0023.262 24.914h0a23.262 24.915 0 0023.262-24.915v-65.629h32.907a19.858 21.269 0 0019.858-21.269h0a19.858 21.269 0 00-19.858-21.268z" fill="#3051d3"/><path stroke="#3f3d56" d="M336.364 312.336h-32.907V208.548a19.407 20.785 0 00-19.407-20.785h-7.71a19.407 20.785 0 00-19.407 20.785v103.788h-92.82a11.079 11.866 0 01-9.796-17.409l98.24-199.147a19.407 20.785 0 00-8.872-28.505l-5.8-2.933a19.407 20.785 0 00-25.4 8.996L92.667 313.402a26.315 28.185 0 00-3.108 13.287h0a26.315 28.185 0 0026.315 28.185h141.058v65.629a23.262 24.915 0 0023.262 24.914h0a23.262 24.915 0 0023.262-24.914v-65.63h32.907a19.858 21.269 0 0019.858-21.268h0a19.858 21.269 0 00-19.858-21.269h0zM529.835 49.212c-79.59 0-136.735 54.691-136.735 182.303 0 144.627 57.145 182.91 136.735 182.91s140.14-41.929 140.14-182.91c0-150.703-60.55-182.303-140.14-182.303zm.524 317.207c-55.126 0-83.926-34.638-83.926-134.81 0-88.387 29.978-134.998 85.104-134.998s85.105 30.617 85.105 134.998c0 97.646-31.158 134.81-86.284 134.81h0z" fill="none" stroke-miterlimit="10"/><path d="M595.637 27.167s3.012 9.296 5.768 6.82l-2.197-12.15-3.571 5.33z" fill="#fbbebe"/><path d="M1007.201 310.636a19.274 20.643 0 102.567-39.59l.482 10.625-4.693-9.106a19.201 20.565 0 00-9.894 11.627 18.9 20.242 0 00-1.109 5.584 19.27 20.64 0 0012.647 20.86z" fill="#57b894"/><path stroke="#3f3d56" d="M1030.425 433.87c-1.657-9.037 5.522-17.048 12.613-22.255s15.378-10.323 17.797-19.16c3.478-12.7-6.88-24.33-14.942-34.36a116.037 124.281 0 01-15.302-24.357c-1.678-3.504-3.219-7.167-3.66-11.076-.636-5.629 1.053-11.23 2.754-16.6q8.5-26.832 18.177-53.214" fill="none" stroke-miterlimit="10"/><path stroke="#3f3d56" d="M1007.995 307.9a19.274 20.643 0 102.567-39.59l.482 10.625-4.693-9.105a19.201 20.565 0 00-9.894 11.627 18.9 20.242 0 00-1.109 5.584 19.27 20.64 0 0012.647 20.86z" fill="none" stroke-miterlimit="10"/><path d="M1028.069 249.179a19.251 20.62 0 0113.872-13.09l1.587 10.1 2.942-10.608a19.271 20.64 0 11-18.401 13.598h0z" fill="#57b894"/><path stroke="#3f3d56" d="M1029.127 245.531a19.251 20.62 0 0113.873-13.09l1.586 10.101 2.943-10.609a19.271 20.64 0 11-18.402 13.598h0z" fill="none" stroke-miterlimit="10"/><path d="M1042.51 358.3a19.271 20.64 0 0017.057-36.721l-2.261 8.152-1.603-10.22a.335.359 0 00-.05-.02 19.273 20.642 0 10-13.144 38.81h0z" fill="#57b894"/><path stroke="#3f3d56" d="M1043.426 354.606a19.271 20.64 0 0017.058-36.722l-2.261 8.153-1.603-10.22a.335.36 0 00-.05-.02 19.273 20.642 0 10-13.144 38.809h0z" fill="none" stroke-miterlimit="10"/><path d="M1022.444 392.582a19.263 20.632 0 103.714-16.165l8.587 13.843-11.733-7.348a19.092 20.449 0 00-.568 9.67h0z" fill="#57b894"/><path stroke="#3f3d56" d="M1023.238 389.846a19.263 20.632 0 103.714-16.165l8.587 13.843-11.733-7.347a19.092 20.449 0 00-.568 9.67z" fill="none" stroke-miterlimit="10"/><path d="M38.071 360.923a12.663 13.563 0 101.687-26.012l.317 6.981-3.084-5.982a12.615 13.512 0 00-6.5 7.639 12.417 13.3 0 00-.729 3.669 12.66 13.56 0 008.31 13.705z" fill="#57b894"/><path stroke="#3f3d56" d="M53.33 441.89c-1.089-5.938 3.628-11.2 8.287-14.622s10.103-6.783 11.693-12.588c2.285-8.344-4.52-15.986-9.818-22.575A76.238 81.655 0 0153.44 376.1a20.568 22.029 0 01-2.405-7.277c-.418-3.698.692-7.379 1.81-10.907q5.585-17.628 11.942-34.962" fill="none" stroke-miterlimit="10"/><path stroke="#3f3d56" d="M38.593 359.126a12.663 13.563 0 101.686-26.012l.317 6.98-3.083-5.982a12.615 13.512 0 00-6.5 7.64 12.418 13.3 0 00-.73 3.668 12.66 13.56 0 008.31 13.706h0z" fill="none" stroke-miterlimit="10"/><path d="M51.782 320.544a12.648 13.547 0 019.114-8.6l1.043 6.636 1.933-6.97a12.662 13.561 0 11-12.09 8.934z" fill="#57b894"/><path stroke="#3f3d56" d="M52.477 318.148a12.648 13.547 0 019.115-8.6l1.042 6.636 1.933-6.97a12.662 13.561 0 11-12.09 8.934h0z" fill="none" stroke-miterlimit="10"/><path d="M61.27 392.24a12.662 13.561 0 0011.206-24.128l-1.485 5.357-1.053-6.715a.22.236 0 00-.032-.013 12.662 13.562 0 10-8.637 25.498z" fill="#57b894"/><path stroke="#3f3d56" d="M61.872 389.812a12.662 13.561 0 0011.207-24.127l-1.485 5.356-1.054-6.714a.22.236 0 00-.032-.013 12.662 13.562 0 10-8.636 25.498z" fill="none" stroke-miterlimit="10"/><path d="M48.086 414.763a12.656 13.556 0 102.44-10.621l5.643 9.095-7.71-4.827a12.544 13.435 0 00-.373 6.353z" fill="#57b894"/><path stroke="#3f3d56" d="M48.608 412.965a12.656 13.556 0 102.44-10.62l5.642 9.095-7.709-4.828a12.544 13.435 0 00-.373 6.353z" fill="none" stroke-miterlimit="10"/><ellipse cx="17887.348" cy="12324.615" rx="17" ry="22" fill="#2f2e41" transform="matrix(.92607 0 0 .99187 -16089.787 -12013.347)"/><ellipse cx="17979.848" cy="12325.115" rx="17" ry="22" fill="#2f2e41" transform="matrix(.92607 0 0 .99187 -16089.787 -12013.347)"/><path d="M548.741 275.986c0 9.86-12.854 17.854-28.708 17.854s-28.708-7.995-28.708-17.854c0-8.54 9.64-15.681 22.522-17.427a46.4 49.696 0 016.186-.426 46.95 50.286 0 0110.307 1.19c10.761 2.569 18.401 9.066 18.401 16.663z" fill="#2f2e41"/><ellipse stroke="#3f3d56" cx="17891.348" cy="12319.615" rx="17" ry="22" fill="none" stroke-miterlimit="10" transform="matrix(.92607 0 0 .99187 -16089.787 -12013.347)"/><ellipse stroke="#3f3d56" cx="17983.848" cy="12320.115" rx="17" ry="22" fill="none" stroke-miterlimit="10" transform="matrix(.92607 0 0 .99187 -16089.787 -12013.347)"/><ellipse stroke="#3f3d56" cx="17939.848" cy="12385.115" rx="31" ry="18" fill="none" stroke-miterlimit="10" transform="matrix(.92607 0 0 .99187 -16089.787 -12013.347)"/><path d="M530.683 260.81a4.572 4.896 0 01-1.223 3.365 4.018 4.303 0 01-2.944 1.397h-9.261a4.32 4.626 0 01-4.167-4.761 4.542 4.865 0 01.759-2.72 43.544 46.638 0 016.186-.454 44.14 47.277 0 0110.307 1.27 4.692 5.025 0 01.343 1.904h0z" fill="#fff"/><circle cx="17891.348" cy="12313.615" r="5" fill="#fff" transform="matrix(.92607 0 0 .99187 -16089.787 -12013.347)"/><circle cx="17984.348" cy="12313.615" r="5" fill="#fff" transform="matrix(.92607 0 0 .99187 -16089.787 -12013.347)"/><circle cx="17989.348" cy="12360.615" r="5" fill="#3051d3" opacity=".3" transform="matrix(.92607 0 0 .99187 -16089.787 -12013.347)"/><circle cx="17867.348" cy="12360.615" r="5" fill="#3051d3" opacity=".3" transform="matrix(.92607 0 0 .99187 -16089.787 -12013.347)"/><path d="M829.259 60.15c-79.59 0-136.735 54.691-136.735 182.303 0 144.627 57.144 182.911 136.735 182.911s140.139-41.93 140.139-182.91c0-150.704-60.55-182.303-140.14-182.303zm.523 317.208c-55.126 0-83.926-34.64-83.926-134.811 0-88.387 29.979-134.998 85.105-134.998s85.104 30.617 85.104 134.998c0 97.646-31.157 134.81-86.283 134.81z" fill="#2f2e41"/><path stroke="#3f3d56" d="M847.414 49.212c-79.59 0-136.735 54.691-136.735 182.303 0 144.627 57.145 182.91 136.735 182.91s140.14-41.929 140.14-182.91c0-150.703-60.55-182.303-140.14-182.303zm.523 317.207c-55.126 0-83.925-34.638-83.925-134.81 0-88.387 29.978-134.998 85.104-134.998s85.105 30.617 85.105 134.998c0 97.646-31.158 134.81-86.284 134.81h0z" fill="none" stroke-miterlimit="10"/><path d="M913.216 27.167s3.012 9.296 5.768 6.82l-2.197-12.15-3.571 5.33z" fill="#fbbebe"/><ellipse cx="18230.28" cy="12324.615" rx="17" ry="22" fill="#2f2e41" transform="matrix(.92607 0 0 .99187 -16089.787 -12013.347)"/><ellipse cx="18322.78" cy="12325.115" rx="17" ry="22" fill="#2f2e41" transform="matrix(.92607 0 0 .99187 -16089.787 -12013.347)"/><path d="M866.32 275.986c0 9.86-12.854 17.854-28.708 17.854s-28.708-7.995-28.708-17.854c0-8.54 9.64-15.681 22.522-17.427a46.4 49.696 0 016.186-.426 46.95 50.286 0 0110.307 1.19c10.761 2.569 18.401 9.066 18.401 16.663z" fill="#2f2e41"/><ellipse stroke="#3f3d56" cx="18234.28" cy="12319.615" rx="17" ry="22" fill="none" stroke-miterlimit="10" transform="matrix(.92607 0 0 .99187 -16089.787 -12013.347)"/><ellipse stroke="#3f3d56" cx="18326.78" cy="12320.115" rx="17" ry="22" fill="none" stroke-miterlimit="10" transform="matrix(.92607 0 0 .99187 -16089.787 -12013.347)"/><ellipse stroke="#3f3d56" cx="18282.78" cy="12385.115" rx="31" ry="18" fill="none" stroke-miterlimit="10" transform="matrix(.92607 0 0 .99187 -16089.787 -12013.347)"/><path d="M848.262 260.81a4.572 4.896 0 01-1.223 3.365 4.018 4.303 0 01-2.945 1.397h-9.26a4.32 4.626 0 01-4.168-4.761 4.542 4.865 0 01.76-2.72 43.544 46.638 0 016.186-.454 44.14 47.277 0 0110.307 1.27 4.692 5.025 0 01.343 1.904z" fill="#fff"/><circle cx="18234.28" cy="12313.615" r="5" fill="#fff" transform="matrix(.92607 0 0 .99187 -16089.787 -12013.347)"/><circle cx="18327.28" cy="12313.615" r="5" fill="#fff" transform="matrix(.92607 0 0 .99187 -16089.787 -12013.347)"/><circle cx="18332.28" cy="12360.615" r="5" fill="#3051d3" opacity=".3" transform="matrix(.92607 0 0 .99187 -16089.787 -12013.347)"/><circle cx="18210.28" cy="12360.615" r="5" fill="#3051d3" opacity=".3" transform="matrix(.92607 0 0 .99187 -16089.787 -12013.347)"/></g><path fill="none" d="M-1-1h1102v502H-1z"/></svg>