<svg xmlns="http://www.w3.org/2000/svg" width="18" height="19"><path d="M17.64 8.84c0-.64-.06-1.25-.16-1.84H9v3.48h4.84c-.2 1.13-.84 2.08-1.79 2.72v2.26h2.91c1.7-1.57 2.68-3.88 2.68-6.62z" fill="#4285f4"/><path d="M9.04 18.29c2.43 0 4.47-.81 5.96-2.18l-2.91-2.26c-.81.54-1.84.86-3.05.86-2.34 0-4.33-1.58-5.03-3.71H1v2.33a8.993 8.993 0 008.04 4.96z" fill="#34a853"/><path d="M3.96 10.75a5.377 5.377 0 010-3.42V5h-3a8.976 8.976 0 000 8.08z" fill="#fbbc05"/><path d="M9.04 3.58c1.32 0 2.51.45 3.44 1.35l2.58-2.59C13.51.89 11.47 0 9.04 0 5.52 0 2.48 2.02 1 4.96l3.01 2.33c.7-2.13 2.69-3.71 5.03-3.71z" fill="#ea4335"/></svg>